<?xml version="1.0"?><svg xmlns="http://www.w3.org/2000/svg" width="169" height="169"><rect x="0" y="0" width="100%" height="100%" fill="rgb(116, 185, 255)" /><g fill="#ddd" style="opacity:0.10666666666667;" transform="translate(-28.29, -28.29) rotate(45, 28.29, 28.29)" ><rect x="20" y="0" width="20" height="60" /><rect x="0" y="20" width="60" height="20" /></g><g fill="#ddd" style="opacity:0.10666666666667;" transform="translate(141.45, -28.29) rotate(45, 28.29, 28.29)" ><rect x="20" y="0" width="20" height="60" /><rect x="0" y="20" width="60" height="20" /></g><g fill="#ddd" style="opacity:0.10666666666667;" transform="translate(-28.29, 141.45) rotate(45, 28.29, 28.29)" ><rect x="20" y="0" width="20" height="60" /><rect x="0" y="20" width="60" height="20" /></g><g fill="#ddd" style="opacity:0.10666666666667;" transform="translate(141.45, 141.45) rotate(45, 28.29, 28.29" ><rect x="20" y="0" width="20" height="60" /><rect x="0" y="20" width="60" height="20" /></g><g fill="#ddd" style="opacity:0.072;" transform="translate(0, -14.145) rotate(45, 28.29, 28.29)" ><rect x="20" y="0" width="20" height="60" /><rect x="0" y="20" width="60" height="20" /></g><g fill="#ddd" style="opacity:0.072;" transform="translate(0, 155.595) rotate(45, 28.29, 28.29)" ><rect x="20" y="0" width="20" height="60" /><rect x="0" y="20" width="60" height="20" /></g><g fill="#ddd" style="opacity:0.10666666666667;" transform="translate(28.29, -28.29) rotate(45, 28.29, 28.29)" ><rect x="20" y="0" width="20" height="60" /><rect x="0" y="20" width="60" height="20" /></g><g fill="#ddd" style="opacity:0.10666666666667;" transform="translate(28.29, 141.45) rotate(45, 28.29, 28.29)" ><rect x="20" y="0" width="20" height="60" /><rect x="0" y="20" width="60" height="20" /></g><g fill="#222" style="opacity:0.11533333333333;" transform="translate(56.58, -14.145) rotate(45, 28.29, 28.29)" ><rect x="20" y="0" width="20" height="60" /><rect x="0" y="20" width="60" height="20" /></g><g fill="#222" style="opacity:0.11533333333333;" transform="translate(56.58, 155.595) rotate(45, 28.29, 28.29)" ><rect x="20" y="0" width="20" height="60" /><rect x="0" y="20" width="60" height="20" /></g><g fill="#222" style="opacity:0.080666666666667;" transform="translate(84.87, -28.29) rotate(45, 28.29, 28.29)" ><rect x="20" y="0" width="20" height="60" /><rect x="0" y="20" width="60" height="20" /></g><g fill="#222" style="opacity:0.080666666666667;" transform="translate(84.87, 141.45) rotate(45, 28.29, 28.29)" ><rect x="20" y="0" width="20" height="60" /><rect x="0" y="20" width="60" height="20" /></g><g fill="#ddd" style="opacity:0.037333333333333;" transform="translate(113.16, -14.145) rotate(45, 28.29, 28.29)" ><rect x="20" y="0" width="20" height="60" /><rect x="0" y="20" width="60" height="20" /></g><g fill="#ddd" style="opacity:0.037333333333333;" transform="translate(113.16, 155.595) rotate(45, 28.29, 28.29)" ><rect x="20" y="0" width="20" height="60" /><rect x="0" y="20" width="60" height="20" /></g><g fill="#222" style="opacity:0.098;" transform="translate(-28.29, 0) rotate(45, 28.29, 28.29)" ><rect x="20" y="0" width="20" height="60" /><rect x="0" y="20" width="60" height="20" /></g><g fill="#222" style="opacity:0.098;" transform="translate(141.45, 0) rotate(45, 28.29, 28.29)" ><rect x="20" y="0" width="20" height="60" /><rect x="0" y="20" width="60" height="20" /></g><g fill="#ddd" style="opacity:0.124;" transform="translate(0, 14.145) rotate(45, 28.29, 28.29)" ><rect x="20" y="0" width="20" height="60" /><rect x="0" y="20" width="60" height="20" /></g><g fill="#222" style="opacity:0.080666666666667;" transform="translate(28.29, 0) rotate(45, 28.29, 28.29)" ><rect x="20" y="0" width="20" height="60" /><rect x="0" y="20" width="60" height="20" /></g><g fill="#ddd" style="opacity:0.072;" transform="translate(56.58, 14.145) rotate(45, 28.29, 28.29)" ><rect x="20" y="0" width="20" height="60" /><rect x="0" y="20" width="60" height="20" /></g><g fill="#ddd" style="opacity:0.10666666666667;" transform="translate(84.87, 0) rotate(45, 28.29, 28.29)" ><rect x="20" y="0" width="20" height="60" /><rect x="0" y="20" width="60" height="20" /></g><g fill="#222" style="opacity:0.15;" transform="translate(113.16, 14.145) rotate(45, 28.29, 28.29)" ><rect x="20" y="0" width="20" height="60" /><rect x="0" y="20" width="60" height="20" /></g><g fill="#222" style="opacity:0.063333333333333;" transform="translate(-28.29, 28.29) rotate(45, 28.29, 28.29)" ><rect x="20" y="0" width="20" height="60" /><rect x="0" y="20" width="60" height="20" /></g><g fill="#222" style="opacity:0.063333333333333;" transform="translate(141.45, 28.29) rotate(45, 28.29, 28.29)" ><rect x="20" y="0" width="20" height="60" /><rect x="0" y="20" width="60" height="20" /></g><g fill="#222" style="opacity:0.046;" transform="translate(0, 42.435) rotate(45, 28.29, 28.29)" ><rect x="20" y="0" width="20" height="60" /><rect x="0" y="20" width="60" height="20" /></g><g fill="#222" style="opacity:0.098;" transform="translate(28.29, 28.29) rotate(45, 28.29, 28.29)" ><rect x="20" y="0" width="20" height="60" /><rect x="0" y="20" width="60" height="20" /></g><g fill="#ddd" style="opacity:0.072;" transform="translate(56.58, 42.435) rotate(45, 28.29, 28.29)" ><rect x="20" y="0" width="20" height="60" /><rect x="0" y="20" width="60" height="20" /></g><g fill="#ddd" style="opacity:0.14133333333333;" transform="translate(84.87, 28.29) rotate(45, 28.29, 28.29)" ><rect x="20" y="0" width="20" height="60" /><rect x="0" y="20" width="60" height="20" /></g><g fill="#222" style="opacity:0.13266666666667;" transform="translate(113.16, 42.435) rotate(45, 28.29, 28.29)" ><rect x="20" y="0" width="20" height="60" /><rect x="0" y="20" width="60" height="20" /></g><g fill="#222" style="opacity:0.028666666666667;" transform="translate(-28.29, 56.58) rotate(45, 28.29, 28.29)" ><rect x="20" y="0" width="20" height="60" /><rect x="0" y="20" width="60" height="20" /></g><g fill="#222" style="opacity:0.028666666666667;" transform="translate(141.45, 56.58) rotate(45, 28.29, 28.29)" ><rect x="20" y="0" width="20" height="60" /><rect x="0" y="20" width="60" height="20" /></g><g fill="#ddd" style="opacity:0.037333333333333;" transform="translate(0, 70.725) rotate(45, 28.29, 28.29)" ><rect x="20" y="0" width="20" height="60" /><rect x="0" y="20" width="60" height="20" /></g><g fill="#222" style="opacity:0.046;" transform="translate(28.29, 56.58) rotate(45, 28.29, 28.29)" ><rect x="20" y="0" width="20" height="60" /><rect x="0" y="20" width="60" height="20" /></g><g fill="#222" style="opacity:0.063333333333333;" transform="translate(56.58, 70.725) rotate(45, 28.29, 28.29)" ><rect x="20" y="0" width="20" height="60" /><rect x="0" y="20" width="60" height="20" /></g><g fill="#ddd" style="opacity:0.02;" transform="translate(84.87, 56.58) rotate(45, 28.29, 28.29)" ><rect x="20" y="0" width="20" height="60" /><rect x="0" y="20" width="60" height="20" /></g><g fill="#222" style="opacity:0.13266666666667;" transform="translate(113.16, 70.725) rotate(45, 28.29, 28.29)" ><rect x="20" y="0" width="20" height="60" /><rect x="0" y="20" width="60" height="20" /></g><g fill="#222" style="opacity:0.13266666666667;" transform="translate(-28.29, 84.87) rotate(45, 28.29, 28.29)" ><rect x="20" y="0" width="20" height="60" /><rect x="0" y="20" width="60" height="20" /></g><g fill="#222" style="opacity:0.13266666666667;" transform="translate(141.45, 84.87) rotate(45, 28.29, 28.29)" ><rect x="20" y="0" width="20" height="60" /><rect x="0" y="20" width="60" height="20" /></g><g fill="#222" style="opacity:0.15;" transform="translate(0, 99.015) rotate(45, 28.29, 28.29)" ><rect x="20" y="0" width="20" height="60" /><rect x="0" y="20" width="60" height="20" /></g><g fill="#ddd" style="opacity:0.072;" transform="translate(28.29, 84.87) rotate(45, 28.29, 28.29)" ><rect x="20" y="0" width="20" height="60" /><rect x="0" y="20" width="60" height="20" /></g><g fill="#ddd" style="opacity:0.089333333333333;" transform="translate(56.58, 99.015) rotate(45, 28.29, 28.29)" ><rect x="20" y="0" width="20" height="60" /><rect x="0" y="20" width="60" height="20" /></g><g fill="#222" style="opacity:0.028666666666667;" transform="translate(84.87, 84.87) rotate(45, 28.29, 28.29)" ><rect x="20" y="0" width="20" height="60" /><rect x="0" y="20" width="60" height="20" /></g><g fill="#222" style="opacity:0.080666666666667;" transform="translate(113.16, 99.015) rotate(45, 28.29, 28.29)" ><rect x="20" y="0" width="20" height="60" /><rect x="0" y="20" width="60" height="20" /></g><g fill="#ddd" style="opacity:0.089333333333333;" transform="translate(-28.29, 113.16) rotate(45, 28.29, 28.29)" ><rect x="20" y="0" width="20" height="60" /><rect x="0" y="20" width="60" height="20" /></g><g fill="#ddd" style="opacity:0.089333333333333;" transform="translate(141.45, 113.16) rotate(45, 28.29, 28.29)" ><rect x="20" y="0" width="20" height="60" /><rect x="0" y="20" width="60" height="20" /></g><g fill="#ddd" style="opacity:0.089333333333333;" transform="translate(-28.29, -56.58) rotate(45, 28.29, 28.29)" ><rect x="20" y="0" width="20" height="60" /><rect x="0" y="20" width="60" height="20" /></g><g fill="#ddd" style="opacity:0.14133333333333;" transform="translate(0, 127.305) rotate(45, 28.29, 28.29)" ><rect x="20" y="0" width="20" height="60" /><rect x="0" y="20" width="60" height="20" /></g><g fill="#ddd" style="opacity:0.14133333333333;" transform="translate(0, -42.435) rotate(45, 28.29, 28.29)" ><rect x="20" y="0" width="20" height="60" /><rect x="0" y="20" width="60" height="20" /></g><g fill="#ddd" style="opacity:0.072;" transform="translate(28.29, 113.16) rotate(45, 28.29, 28.29)" ><rect x="20" y="0" width="20" height="60" /><rect x="0" y="20" width="60" height="20" /></g><g fill="#ddd" style="opacity:0.072;" transform="translate(28.29, -56.58) rotate(45, 28.29, 28.29)" ><rect x="20" y="0" width="20" height="60" /><rect x="0" y="20" width="60" height="20" /></g><g fill="#ddd" style="opacity:0.072;" transform="translate(56.58, 127.305) rotate(45, 28.29, 28.29)" ><rect x="20" y="0" width="20" height="60" /><rect x="0" y="20" width="60" height="20" /></g><g fill="#ddd" style="opacity:0.072;" transform="translate(56.58, -42.435) rotate(45, 28.29, 28.29)" ><rect x="20" y="0" width="20" height="60" /><rect x="0" y="20" width="60" height="20" /></g><g fill="#222" style="opacity:0.080666666666667;" transform="translate(84.87, 113.16) rotate(45, 28.29, 28.29)" ><rect x="20" y="0" width="20" height="60" /><rect x="0" y="20" width="60" height="20" /></g><g fill="#222" style="opacity:0.080666666666667;" transform="translate(84.87, -56.58) rotate(45, 28.29, 28.29)" ><rect x="20" y="0" width="20" height="60" /><rect x="0" y="20" width="60" height="20" /></g><g fill="#222" style="opacity:0.046;" transform="translate(113.16, 127.305) rotate(45, 28.29, 28.29)" ><rect x="20" y="0" width="20" height="60" /><rect x="0" y="20" width="60" height="20" /></g><g fill="#222" style="opacity:0.046;" transform="translate(113.16, -42.435) rotate(45, 28.29, 28.29)" ><rect x="20" y="0" width="20" height="60" /><rect x="0" y="20" width="60" height="20" /></g></svg>