<?xml version="1.0"?><svg xmlns="http://www.w3.org/2000/svg" width="92" height="102"><rect x="0" y="0" width="100%" height="100%" fill="rgb(108, 92, 231)" /><polyline points="7.6666666666667, 0, 15.333333333333, 17, 7.6666666666667, 34, 0, 17" fill="#ddd" fill-opacity="0.037333333333333" stroke="#000" stroke-opacity="0.02" transform="translate(-7.6666666666667, -17)" /><polyline points="7.6666666666667, 0, 15.333333333333, 17, 7.6666666666667, 34, 0, 17" fill="#ddd" fill-opacity="0.037333333333333" stroke="#000" stroke-opacity="0.02" transform="translate(84.333333333333, -17)" /><polyline points="7.6666666666667, 0, 15.333333333333, 17, 7.6666666666667, 34, 0, 17" fill="#ddd" fill-opacity="0.037333333333333" stroke="#000" stroke-opacity="0.02" transform="translate(-7.6666666666667, 85)" /><polyline points="7.6666666666667, 0, 15.333333333333, 17, 7.6666666666667, 34, 0, 17" fill="#ddd" fill-opacity="0.037333333333333" stroke="#000" stroke-opacity="0.02" transform="translate(84.333333333333, 85)" /><polyline points="7.6666666666667, 0, 15.333333333333, 17, 7.6666666666667, 34, 0, 17" fill="#222" fill-opacity="0.098" stroke="#000" stroke-opacity="0.02" transform="translate(7.6666666666667, -17)" /><polyline points="7.6666666666667, 0, 15.333333333333, 17, 7.6666666666667, 34, 0, 17" fill="#222" fill-opacity="0.098" stroke="#000" stroke-opacity="0.02" transform="translate(7.6666666666667, 85)" /><polyline points="7.6666666666667, 0, 15.333333333333, 17, 7.6666666666667, 34, 0, 17" fill="#ddd" fill-opacity="0.02" stroke="#000" stroke-opacity="0.02" transform="translate(23, -17)" /><polyline points="7.6666666666667, 0, 15.333333333333, 17, 7.6666666666667, 34, 0, 17" fill="#ddd" fill-opacity="0.02" stroke="#000" stroke-opacity="0.02" transform="translate(23, 85)" /><polyline points="7.6666666666667, 0, 15.333333333333, 17, 7.6666666666667, 34, 0, 17" fill="#222" fill-opacity="0.063333333333333" stroke="#000" stroke-opacity="0.02" transform="translate(38.333333333333, -17)" /><polyline points="7.6666666666667, 0, 15.333333333333, 17, 7.6666666666667, 34, 0, 17" fill="#222" fill-opacity="0.063333333333333" stroke="#000" stroke-opacity="0.02" transform="translate(38.333333333333, 85)" /><polyline points="7.6666666666667, 0, 15.333333333333, 17, 7.6666666666667, 34, 0, 17" fill="#ddd" fill-opacity="0.02" stroke="#000" stroke-opacity="0.02" transform="translate(53.666666666667, -17)" /><polyline points="7.6666666666667, 0, 15.333333333333, 17, 7.6666666666667, 34, 0, 17" fill="#ddd" fill-opacity="0.02" stroke="#000" stroke-opacity="0.02" transform="translate(53.666666666667, 85)" /><polyline points="7.6666666666667, 0, 15.333333333333, 17, 7.6666666666667, 34, 0, 17" fill="#222" fill-opacity="0.046" stroke="#000" stroke-opacity="0.02" transform="translate(69, -17)" /><polyline points="7.6666666666667, 0, 15.333333333333, 17, 7.6666666666667, 34, 0, 17" fill="#222" fill-opacity="0.046" stroke="#000" stroke-opacity="0.02" transform="translate(69, 85)" /><polyline points="7.6666666666667, 0, 15.333333333333, 17, 7.6666666666667, 34, 0, 17" fill="#222" fill-opacity="0.11533333333333" stroke="#000" stroke-opacity="0.02" transform="translate(0, 0)" /><polyline points="7.6666666666667, 0, 15.333333333333, 17, 7.6666666666667, 34, 0, 17" fill="#222" fill-opacity="0.11533333333333" stroke="#000" stroke-opacity="0.02" transform="translate(92, 0)" /><polyline points="7.6666666666667, 0, 15.333333333333, 17, 7.6666666666667, 34, 0, 17" fill="#222" fill-opacity="0.028666666666667" stroke="#000" stroke-opacity="0.02" transform="translate(15.333333333333, 0)" /><polyline points="7.6666666666667, 0, 15.333333333333, 17, 7.6666666666667, 34, 0, 17" fill="#222" fill-opacity="0.063333333333333" stroke="#000" stroke-opacity="0.02" transform="translate(30.666666666667, 0)" /><polyline points="7.6666666666667, 0, 15.333333333333, 17, 7.6666666666667, 34, 0, 17" fill="#222" fill-opacity="0.13266666666667" stroke="#000" stroke-opacity="0.02" transform="translate(46, 0)" /><polyline points="7.6666666666667, 0, 15.333333333333, 17, 7.6666666666667, 34, 0, 17" fill="#ddd" fill-opacity="0.089333333333333" stroke="#000" stroke-opacity="0.02" transform="translate(61.333333333333, 0)" /><polyline points="7.6666666666667, 0, 15.333333333333, 17, 7.6666666666667, 34, 0, 17" fill="#ddd" fill-opacity="0.02" stroke="#000" stroke-opacity="0.02" transform="translate(76.666666666667, 0)" /><polyline points="7.6666666666667, 0, 15.333333333333, 17, 7.6666666666667, 34, 0, 17" fill="#ddd" fill-opacity="0.037333333333333" stroke="#000" stroke-opacity="0.02" transform="translate(-7.6666666666667, 17)" /><polyline points="7.6666666666667, 0, 15.333333333333, 17, 7.6666666666667, 34, 0, 17" fill="#ddd" fill-opacity="0.037333333333333" stroke="#000" stroke-opacity="0.02" transform="translate(84.333333333333, 17)" /><polyline points="7.6666666666667, 0, 15.333333333333, 17, 7.6666666666667, 34, 0, 17" fill="#222" fill-opacity="0.098" stroke="#000" stroke-opacity="0.02" transform="translate(7.6666666666667, 17)" /><polyline points="7.6666666666667, 0, 15.333333333333, 17, 7.6666666666667, 34, 0, 17" fill="#222" fill-opacity="0.028666666666667" stroke="#000" stroke-opacity="0.02" transform="translate(23, 17)" /><polyline points="7.6666666666667, 0, 15.333333333333, 17, 7.6666666666667, 34, 0, 17" fill="#222" fill-opacity="0.080666666666667" stroke="#000" stroke-opacity="0.02" transform="translate(38.333333333333, 17)" /><polyline points="7.6666666666667, 0, 15.333333333333, 17, 7.6666666666667, 34, 0, 17" fill="#222" fill-opacity="0.046" stroke="#000" stroke-opacity="0.02" transform="translate(53.666666666667, 17)" /><polyline points="7.6666666666667, 0, 15.333333333333, 17, 7.6666666666667, 34, 0, 17" fill="#ddd" fill-opacity="0.037333333333333" stroke="#000" stroke-opacity="0.02" transform="translate(69, 17)" /><polyline points="7.6666666666667, 0, 15.333333333333, 17, 7.6666666666667, 34, 0, 17" fill="#222" fill-opacity="0.080666666666667" stroke="#000" stroke-opacity="0.02" transform="translate(0, 34)" /><polyline points="7.6666666666667, 0, 15.333333333333, 17, 7.6666666666667, 34, 0, 17" fill="#222" fill-opacity="0.080666666666667" stroke="#000" stroke-opacity="0.02" transform="translate(92, 34)" /><polyline points="7.6666666666667, 0, 15.333333333333, 17, 7.6666666666667, 34, 0, 17" fill="#ddd" fill-opacity="0.072" stroke="#000" stroke-opacity="0.02" transform="translate(15.333333333333, 34)" /><polyline points="7.6666666666667, 0, 15.333333333333, 17, 7.6666666666667, 34, 0, 17" fill="#222" fill-opacity="0.11533333333333" stroke="#000" stroke-opacity="0.02" transform="translate(30.666666666667, 34)" /><polyline points="7.6666666666667, 0, 15.333333333333, 17, 7.6666666666667, 34, 0, 17" fill="#222" fill-opacity="0.046" stroke="#000" stroke-opacity="0.02" transform="translate(46, 34)" /><polyline points="7.6666666666667, 0, 15.333333333333, 17, 7.6666666666667, 34, 0, 17" fill="#222" fill-opacity="0.098" stroke="#000" stroke-opacity="0.02" transform="translate(61.333333333333, 34)" /><polyline points="7.6666666666667, 0, 15.333333333333, 17, 7.6666666666667, 34, 0, 17" fill="#222" fill-opacity="0.063333333333333" stroke="#000" stroke-opacity="0.02" transform="translate(76.666666666667, 34)" /><polyline points="7.6666666666667, 0, 15.333333333333, 17, 7.6666666666667, 34, 0, 17" fill="#ddd" fill-opacity="0.14133333333333" stroke="#000" stroke-opacity="0.02" transform="translate(-7.6666666666667, 51)" /><polyline points="7.6666666666667, 0, 15.333333333333, 17, 7.6666666666667, 34, 0, 17" fill="#ddd" fill-opacity="0.14133333333333" stroke="#000" stroke-opacity="0.02" transform="translate(84.333333333333, 51)" /><polyline points="7.6666666666667, 0, 15.333333333333, 17, 7.6666666666667, 34, 0, 17" fill="#ddd" fill-opacity="0.02" stroke="#000" stroke-opacity="0.02" transform="translate(7.6666666666667, 51)" /><polyline points="7.6666666666667, 0, 15.333333333333, 17, 7.6666666666667, 34, 0, 17" fill="#222" fill-opacity="0.080666666666667" stroke="#000" stroke-opacity="0.02" transform="translate(23, 51)" /><polyline points="7.6666666666667, 0, 15.333333333333, 17, 7.6666666666667, 34, 0, 17" fill="#ddd" fill-opacity="0.124" stroke="#000" stroke-opacity="0.02" transform="translate(38.333333333333, 51)" /><polyline points="7.6666666666667, 0, 15.333333333333, 17, 7.6666666666667, 34, 0, 17" fill="#222" fill-opacity="0.15" stroke="#000" stroke-opacity="0.02" transform="translate(53.666666666667, 51)" /><polyline points="7.6666666666667, 0, 15.333333333333, 17, 7.6666666666667, 34, 0, 17" fill="#222" fill-opacity="0.13266666666667" stroke="#000" stroke-opacity="0.02" transform="translate(69, 51)" /><polyline points="7.6666666666667, 0, 15.333333333333, 17, 7.6666666666667, 34, 0, 17" fill="#ddd" fill-opacity="0.02" stroke="#000" stroke-opacity="0.02" transform="translate(0, 68)" /><polyline points="7.6666666666667, 0, 15.333333333333, 17, 7.6666666666667, 34, 0, 17" fill="#ddd" fill-opacity="0.02" stroke="#000" stroke-opacity="0.02" transform="translate(92, 68)" /><polyline points="7.6666666666667, 0, 15.333333333333, 17, 7.6666666666667, 34, 0, 17" fill="#222" fill-opacity="0.098" stroke="#000" stroke-opacity="0.02" transform="translate(15.333333333333, 68)" /><polyline points="7.6666666666667, 0, 15.333333333333, 17, 7.6666666666667, 34, 0, 17" fill="#ddd" fill-opacity="0.124" stroke="#000" stroke-opacity="0.02" transform="translate(30.666666666667, 68)" /><polyline points="7.6666666666667, 0, 15.333333333333, 17, 7.6666666666667, 34, 0, 17" fill="#ddd" fill-opacity="0.054666666666667" stroke="#000" stroke-opacity="0.02" transform="translate(46, 68)" /><polyline points="7.6666666666667, 0, 15.333333333333, 17, 7.6666666666667, 34, 0, 17" fill="#222" fill-opacity="0.13266666666667" stroke="#000" stroke-opacity="0.02" transform="translate(61.333333333333, 68)" /><polyline points="7.6666666666667, 0, 15.333333333333, 17, 7.6666666666667, 34, 0, 17" fill="#222" fill-opacity="0.028666666666667" stroke="#000" stroke-opacity="0.02" transform="translate(76.666666666667, 68)" /></svg>